<svg version="1.1" xmlns="http://www.w3.org/2000/svg" viewBox="0 0 972.0000000000002 345" width="972.0000000000002" height="345">
  <!-- svg-source:excalidraw -->
  
  <defs>
    <style class="style-fonts">
      @font-face {
        font-family: "Virgil";
        src: url("https://excalidraw.com/Virgil.woff2");
      }
      @font-face {
        font-family: "Cascadia";
        src: url("https://excalidraw.com/Cascadia.woff2");
      }
    </style>
  </defs>
  <rect x="0" y="0" width="972.0000000000002" height="345" fill="#ffffff"></rect><g stroke-linecap="round" transform="translate(357.81096476152675 120.5) rotate(0 105 52)"><path d="M26 0 M26 0 C63.93 -2.1, 100.39 -0.95, 184 0 M26 0 C84.45 0.89, 143.82 1.17, 184 0 M184 0 C202.1 1.96, 210.6 8.62, 210 26 M184 0 C202.01 -1.91, 207.72 6.58, 210 26 M210 26 C211.46 41.2, 207.55 54.55, 210 78 M210 26 C210.37 41.55, 210.19 55.96, 210 78 M210 78 C208.77 96.78, 202.67 102.7, 184 104 M210 78 C210.66 95.61, 202.29 105.11, 184 104 M184 104 C135.04 103.01, 83.78 102.93, 26 104 M184 104 C150.68 104.44, 117.27 104.31, 26 104 M26 104 C10.03 104.24, 0.3 95.78, 0 78 M26 104 C6.78 106.15, 0.65 96.07, 0 78 M0 78 C-1.18 60.68, -2.03 44.82, 0 26 M0 78 C0.7 57.93, 0.96 39.31, 0 26 M0 26 C-0.32 6.92, 6.69 -0.62, 26 0 M0 26 C-1.05 8.06, 8.8 1.56, 26 0" stroke="#000000" stroke-width="1" fill="none"></path></g><g transform="translate(387.95263498857753 147.5) rotate(0 74.85832977294922 25)"><text x="74.85832977294922" y="0" font-family="Virgil, Segoe UI Emoji" font-size="20px" fill="#e67700" text-anchor="middle" style="white-space: pre;" direction="ltr" dominant-baseline="text-before-edge">Transformation</text><text x="74.85832977294922" y="25" font-family="Virgil, Segoe UI Emoji" font-size="20px" fill="#e67700" text-anchor="middle" style="white-space: pre;" direction="ltr" dominant-baseline="text-before-edge">script</text></g><g stroke-opacity="0.5" fill-opacity="0.5" stroke-linecap="round" transform="translate(10 10) rotate(0 81.5 52)"><path d="M26 0 M26 0 C65.06 -2.41, 108.18 0.84, 137 0 M26 0 C60.13 -0.39, 95.67 -0.42, 137 0 M137 0 C153.56 1.3, 164 8.25, 163 26 M137 0 C153.08 -1.35, 163.9 7.75, 163 26 M163 26 C164.39 44.44, 163.65 58.71, 163 78 M163 26 C162.75 36.76, 163.06 48.52, 163 78 M163 78 C164.99 93.86, 152.92 102.36, 137 104 M163 78 C163.63 94.14, 153.14 106.14, 137 104 M137 104 C107.46 105.36, 80.96 102.01, 26 104 M137 104 C105.47 103.11, 72.34 102.85, 26 104 M26 104 C10.34 104.34, 0.49 94.8, 0 78 M26 104 C9.53 106.15, -2.07 95.33, 0 78 M0 78 C-1.21 59.08, -1.1 42.1, 0 26 M0 78 C-0.63 64.51, -1.14 50.55, 0 26 M0 26 C0.52 8.93, 9.82 -1.93, 26 0 M0 26 C-0.07 8.15, 9.52 -0.42, 26 0" stroke="#495057" stroke-width="1" fill="none"></path></g><g stroke-opacity="0.5" fill-opacity="0.5" transform="translate(59.82500076293945 49.5) rotate(0 31.674999237060547 12.5)"><text x="31.674999237060547" y="0" font-family="Virgil, Segoe UI Emoji" font-size="20px" fill="#495057" text-anchor="middle" style="white-space: pre;" direction="ltr" dominant-baseline="text-before-edge">Ingest</text></g><g stroke-linecap="round" transform="translate(215.31951761923665 56.75) rotate(0 50.05000000000001 19.25)"><path d="M33.48 1.89 C42.02 0.79, 55.63 0.68, 65.06 1.75 C74.49 2.82, 84.1 5.56, 90.07 8.31 C96.04 11.05, 100.66 14.65, 100.88 18.21 C101.1 21.76, 97.13 26.6, 91.38 29.65 C85.62 32.71, 75.72 35.22, 66.38 36.53 C57.04 37.85, 44.95 38.69, 35.35 37.55 C25.74 36.42, 14.54 32.67, 8.74 29.72 C2.95 26.77, 0.58 23.47, 0.58 19.83 C0.58 16.2, 2.1 11.15, 8.75 7.93 C15.4 4.71, 34.35 1.86, 40.48 0.52 C46.62 -0.81, 45.43 -0.24, 45.58 -0.08 M63.01 1.26 C72.39 2.04, 84.6 5.89, 90.78 8.8 C96.97 11.7, 99.95 15.05, 100.11 18.68 C100.27 22.31, 97.43 27.58, 91.74 30.57 C86.05 33.57, 75.08 35.6, 65.95 36.65 C56.82 37.7, 46.18 37.8, 36.96 36.85 C27.74 35.9, 17.02 33.73, 10.64 30.97 C4.25 28.21, -0.9 23.84, -1.35 20.29 C-1.79 16.74, 2.08 12.8, 7.96 9.66 C13.84 6.51, 24.63 3.06, 33.93 1.41 C43.24 -0.25, 58.8 -0.36, 63.78 -0.28 C68.77 -0.2, 63.9 1.58, 63.83 1.89" stroke="#000000" stroke-width="1" fill="none"></path></g><g stroke-linecap="round" transform="translate(214.7695176192367 139.25) rotate(0 50.05000000000001 19.25)"><path d="M29.33 2.54 C37.63 0.76, 50.19 0.4, 59.95 0.87 C69.71 1.35, 81.13 2.81, 87.88 5.38 C94.63 7.96, 99.42 12.6, 100.45 16.34 C101.49 20.08, 98.97 24.41, 94.07 27.81 C89.18 31.22, 80.28 35.2, 71.07 36.76 C61.87 38.32, 48.44 37.84, 38.86 37.16 C29.28 36.47, 20.11 35.31, 13.58 32.66 C7.05 30.01, 0.77 25.05, -0.32 21.24 C-1.42 17.44, 1.16 13.32, 6.99 9.84 C12.82 6.35, 28.89 2, 34.65 0.34 C40.42 -1.32, 41.16 -0.52, 41.59 -0.13 M69.15 2.7 C78.22 3.66, 86.76 5.85, 91.92 8.86 C97.09 11.87, 100.83 17.15, 100.13 20.78 C99.43 24.4, 93.77 27.94, 87.71 30.62 C81.65 33.31, 73.02 35.82, 63.78 36.89 C54.54 37.96, 41.75 38.19, 32.26 37.06 C22.77 35.93, 12.28 33.04, 6.83 30.11 C1.39 27.17, -1.32 23.23, -0.43 19.45 C0.46 15.67, 5.94 10.73, 12.18 7.43 C18.41 4.14, 27.64 0.58, 36.97 -0.32 C46.31 -1.22, 62.94 1.89, 68.19 2.03 C73.44 2.18, 68.93 0.49, 68.47 0.56" stroke="#000000" stroke-width="1" fill="none"></path></g><g stroke-linecap="round"><g transform="translate(215.8695176192366 77.10000000000002) rotate(0 0.03640737645326908 43.038012678958495)"><path d="M-1.02 -0.96 C-0.71 13.22, 0.75 71.2, 1.09 85.61 M0.65 1.14 C0.97 15.47, 0.69 72.8, 0.71 87.04" stroke="#000000" stroke-width="1" fill="none"></path></g></g><mask></mask><g stroke-linecap="round"><g transform="translate(314.8041942809964 75.98497530364523) rotate(0 0.7191903005702329 42.73126536279919)"><path d="M1.09 -0.19 C1.43 14.21, 1.1 70.96, 1.01 85.45 M0.2 -1.34 C0.56 13.32, 0.61 72.43, 0.59 86.81" stroke="#000000" stroke-width="1" fill="none"></path></g></g><mask></mask><g transform="translate(238.41951761923679 110.64999999999998) rotate(0 27.188333892822243 6.875)"><text x="0" y="0" font-family="Virgil, Segoe UI Emoji" font-size="11px" fill="#000000" text-anchor="start" style="white-space: pre;" direction="ltr" dominant-baseline="text-before-edge">Database</text></g><g stroke-opacity="0.4" fill-opacity="0.4" transform="translate(240.06951761923665 127.14999999999998) rotate(0 23.375 -0.8249999999999886)" stroke="none"><path fill="#087f5b" d="M 0,-5.26 Q 0,-5.26 1.73,-5.34 3.47,-5.41 5.78,-5.72 8.09,-6.04 10.88,-6.33 13.68,-6.62 16.52,-6.75 19.35,-6.88 21.91,-6.97 24.47,-7.07 27.07,-7.43 29.67,-7.80 31.94,-7.89 34.21,-7.98 36.60,-8.05 38.99,-8.12 41.28,-8.18 43.58,-8.25 44.84,-8.52 46.10,-8.78 47.25,-8.70 48.41,-8.62 49.48,-8.17 50.55,-7.72 51.42,-6.95 52.29,-6.19 52.87,-5.18 53.45,-4.18 53.68,-3.04 53.91,-1.91 53.76,-0.76 53.62,0.38 53.11,1.43 52.61,2.47 51.79,3.30 50.98,4.13 49.95,4.65 48.91,5.18 47.77,5.34 46.62,5.51 45.48,5.30 44.34,5.10 43.32,4.53 42.31,3.97 41.52,3.12 40.74,2.26 40.27,1.20 39.81,0.14 39.70,-1.00 39.60,-2.16 39.87,-3.29 40.13,-4.42 40.75,-5.40 41.37,-6.38 42.26,-7.12 43.16,-7.85 44.24,-8.26 45.33,-8.67 46.49,-8.71 47.65,-8.76 48.76,-8.43 49.87,-8.10 50.82,-7.43 51.77,-6.76 52.45,-5.82 53.14,-4.89 53.49,-3.78 53.84,-2.68 53.82,-1.52 53.80,-0.36 53.41,0.72 53.02,1.81 52.30,2.73 51.58,3.64 50.61,4.27 49.64,4.90 48.52,5.19 47.39,5.48 47.39,5.48 47.39,5.48 44.59,5.74 41.78,6.00 39.38,5.93 36.97,5.87 34.64,5.79 32.31,5.70 29.89,5.57 27.47,5.44 24.17,5.65 20.88,5.85 18.13,5.74 15.39,5.63 12.68,5.52 9.97,5.40 6.72,5.41 3.47,5.41 1.73,5.34 0,5.26 -0.63,5.18 -1.26,5.11 -1.85,4.88 -2.44,4.66 -2.96,4.30 -3.49,3.94 -3.91,3.46 -4.33,2.99 -4.62,2.42 -4.92,1.86 -5.07,1.25 -5.22,0.63 -5.22,-0.00 -5.22,-0.63 -5.07,-1.25 -4.92,-1.86 -4.62,-2.42 -4.33,-2.99 -3.91,-3.46 -3.49,-3.94 -2.96,-4.30 -2.44,-4.66 -1.85,-4.88 -1.25,-5.11 -0.62,-5.18 0.00,-5.26 0.00,-5.26 L 0,-5.26 Z"></path></g><g stroke-linecap="round"><g stroke-opacity="0.5" fill-opacity="0.5" transform="translate(176 64.92119825274449) rotate(0 14.796363156446432 0.3043143991733217)"><path d="M0.26 0.45 C5.06 0.41, 23.51 -0.16, 28.35 -0.38 M-1.06 -0.36 C4.16 -0.21, 25.71 0.92, 30.65 0.99" stroke="#495057" stroke-width="2" fill="none"></path></g><g stroke-opacity="0.5" fill-opacity="0.5" transform="translate(176 64.92119825274449) rotate(0 14.796363156446432 0.3043143991733217)"><path d="M17.34 4.52 C20.04 4.42, 23.1 1.82, 31.98 -0.36 M16.93 5.94 C21.07 3.89, 23.8 2.45, 30.26 0.93" stroke="#495057" stroke-width="2" fill="none"></path></g><g stroke-opacity="0.5" fill-opacity="0.5" transform="translate(176 64.92119825274449) rotate(0 14.796363156446432 0.3043143991733217)"><path d="M17.7 -5.43 C20.3 -2.91, 23.26 -2.9, 31.98 -0.36 M17.29 -4.02 C21.35 -3.5, 23.99 -2.37, 30.26 0.93" stroke="#495057" stroke-width="2" fill="none"></path></g></g><mask></mask><g stroke-linecap="round"><g transform="translate(320.819372718689 151.00645097433255) rotate(0 13.894821198367993 -0.13554082836321868)"><path d="M0.23 1.13 C5.08 1.11, 24.16 0.66, 28.89 0.13 M-1.1 0.67 C3.66 0.34, 23.46 -1.07, 28.32 -1.4" stroke="#000000" stroke-width="2" fill="none"></path></g><g transform="translate(320.819372718689 151.00645097433255) rotate(0 13.894821198367993 -0.13554082836321868)"><path d="M16.76 5.17 C20.43 3.17, 21.55 0, 29.53 -1.28 M16.13 3.97 C20.15 2.21, 26.16 0, 28.77 -1.34" stroke="#000000" stroke-width="2" fill="none"></path></g><g transform="translate(320.819372718689 151.00645097433255) rotate(0 13.894821198367993 -0.13554082836321868)"><path d="M16.09 -4.46 C19.97 -3.71, 21.28 -4.13, 29.53 -1.28 M15.46 -5.65 C19.75 -3.65, 26.01 -2.1, 28.77 -1.34" stroke="#000000" stroke-width="2" fill="none"></path></g></g><mask></mask><g stroke-linecap="round" transform="translate(610.1304823807636 167.25) rotate(0 50.05000000000001 19.25)"><path d="M54.44 0.3 C64.01 0.28, 76.64 2.52, 84.06 4.97 C91.48 7.42, 96.96 11.21, 98.95 15 C100.94 18.79, 99.87 24.1, 96 27.71 C92.14 31.33, 84.19 35.06, 75.76 36.7 C67.33 38.35, 55.33 37.99, 45.43 37.6 C35.54 37.22, 23.76 36.69, 16.4 34.39 C9.03 32.09, 3.28 27.59, 1.22 23.82 C-0.85 20.04, -0.06 15.1, 4.01 11.73 C8.08 8.36, 16.22 5.53, 25.62 3.61 C35.02 1.7, 53.65 0.64, 60.43 0.24 C67.21 -0.17, 66.3 0.99, 66.29 1.19 M37.09 -0.78 C46.22 -2.19, 59.67 -0.21, 68.9 1.24 C78.14 2.68, 87.44 4.91, 92.5 7.87 C97.55 10.83, 99.63 14.92, 99.23 18.99 C98.84 23.05, 96.33 29.33, 90.12 32.26 C83.91 35.19, 71.77 35.81, 61.95 36.56 C52.14 37.32, 40.5 38.13, 31.23 36.79 C21.97 35.44, 11.62 31.62, 6.39 28.47 C1.16 25.32, -1.19 21.52, -0.17 17.9 C0.84 14.27, 6.25 9.45, 12.49 6.7 C18.73 3.95, 32.84 2.5, 37.29 1.39 C41.74 0.28, 38.87 0.11, 39.17 0.05" stroke="#000000" stroke-width="1" fill="none"></path></g><g stroke-linecap="round" transform="translate(609.5804823807634 249.75) rotate(0 50.05000000000001 19.25)"><path d="M69.53 1.51 C78.51 2.55, 87.4 5.61, 92.49 8.91 C97.58 12.22, 100.69 17.4, 100.08 21.33 C99.46 25.25, 95.08 29.83, 88.81 32.46 C82.55 35.09, 72.13 36.22, 62.48 37.12 C52.84 38.02, 40.06 39.06, 30.93 37.85 C21.79 36.65, 12.85 33.19, 7.68 29.9 C2.52 26.62, -0.88 21.79, -0.06 18.12 C0.75 14.44, 6.31 10.82, 12.57 7.86 C18.82 4.9, 27.6 1.39, 37.48 0.36 C47.36 -0.67, 65.61 1.4, 71.85 1.66 C78.09 1.93, 75.37 1.75, 74.92 1.95 M74.02 2.14 C82.68 3.65, 91.16 6.6, 95.25 9.76 C99.34 12.93, 100.06 17.12, 98.57 21.14 C97.08 25.15, 93.32 31.21, 86.3 33.85 C79.27 36.49, 66.46 36.65, 56.43 36.98 C46.4 37.32, 34.92 37.61, 26.12 35.88 C17.32 34.14, 7.91 29.93, 3.64 26.58 C-0.63 23.22, -1.62 19.32, 0.49 15.75 C2.6 12.17, 9.26 7.58, 16.31 5.11 C23.37 2.65, 33.05 1.6, 42.81 0.97 C52.58 0.33, 69.82 1.29, 74.91 1.32 C80 1.34, 73.86 0.72, 73.38 1.12" stroke="#000000" stroke-width="1" fill="none"></path></g><g stroke-linecap="round"><g transform="translate(610.6804823807634 187.60000000000002) rotate(0 0.17596758411821156 43.04948501698675)"><path d="M0.92 -0.62 C0.92 13.96, 0.38 72.31, 0.25 86.72 M-0.06 1.67 C-0.21 16, -0.48 70.83, -0.57 85.08" stroke="#000000" stroke-width="1" fill="none"></path></g></g><mask></mask><g stroke-linecap="round"><g transform="translate(709.6151590425234 186.48497530364523) rotate(0 -0.4667757123631304 43.86034247724342)"><path d="M0.25 0.92 C0.12 15.33, 0.2 71.65, 0.13 85.82 M-1.08 0.36 C-1.44 15.02, -0.76 72.87, -0.75 87.36" stroke="#000000" stroke-width="1" fill="none"></path></g></g><mask></mask><g transform="translate(633.2304823807635 221.14999999999998) rotate(0 27.188333892822243 6.875)"><text x="0" y="0" font-family="Virgil, Segoe UI Emoji" font-size="11px" fill="#000000" text-anchor="start" style="white-space: pre;" direction="ltr" dominant-baseline="text-before-edge">Database</text></g><g stroke-opacity="0.4" fill-opacity="0.4" transform="translate(634.8804823807636 237.64999999999998) rotate(0 23.375 -0.8249999999999886)" stroke="none"><path fill="#087f5b" d="M 0,-5.26 Q 0,-5.26 1.73,-5.34 3.47,-5.41 5.78,-5.72 8.09,-6.04 10.88,-6.33 13.68,-6.62 16.52,-6.75 19.35,-6.88 21.91,-6.97 24.47,-7.07 27.07,-7.43 29.67,-7.80 31.94,-7.89 34.21,-7.98 36.60,-8.05 38.99,-8.12 41.28,-8.18 43.58,-8.25 44.74,-8.50 45.90,-8.76 47.05,-8.68 48.21,-8.59 49.28,-8.15 50.35,-7.70 51.22,-6.93 52.09,-6.17 52.67,-5.16 53.25,-4.16 53.48,-3.02 53.71,-1.89 53.56,-0.74 53.41,0.40 52.91,1.44 52.40,2.49 51.59,3.31 50.78,4.14 49.75,4.66 48.71,5.19 47.57,5.36 46.42,5.52 45.28,5.32 44.14,5.11 43.13,4.55 42.11,3.99 41.33,3.13 40.55,2.28 40.08,1.22 39.61,0.16 39.51,-0.99 39.40,-2.14 39.67,-3.27 39.94,-4.40 40.56,-5.38 41.17,-6.36 42.07,-7.09 42.96,-7.83 44.05,-8.24 45.13,-8.65 46.29,-8.69 47.45,-8.73 48.56,-8.40 49.67,-8.07 50.62,-7.41 51.56,-6.74 52.25,-5.80 52.93,-4.87 53.28,-3.76 53.64,-2.66 53.61,-1.50 53.59,-0.34 53.20,0.74 52.82,1.83 52.10,2.74 51.38,3.65 50.41,4.28 49.44,4.92 48.32,5.21 47.20,5.50 47.20,5.50 47.20,5.50 44.49,5.75 41.78,6.00 39.38,5.93 36.97,5.87 34.64,5.79 32.31,5.70 29.89,5.57 27.47,5.44 24.17,5.65 20.88,5.85 18.13,5.74 15.39,5.63 12.68,5.52 9.97,5.40 6.72,5.41 3.47,5.41 1.73,5.34 0,5.26 -0.63,5.18 -1.26,5.11 -1.85,4.88 -2.44,4.66 -2.96,4.30 -3.49,3.94 -3.91,3.46 -4.33,2.99 -4.62,2.42 -4.92,1.86 -5.07,1.25 -5.22,0.63 -5.22,-0.00 -5.22,-0.63 -5.07,-1.25 -4.92,-1.86 -4.62,-2.42 -4.33,-2.99 -3.91,-3.46 -3.49,-3.94 -2.96,-4.30 -2.44,-4.66 -1.85,-4.88 -1.25,-5.11 -0.62,-5.18 0.00,-5.26 0.00,-5.26 L 0,-5.26 Z"></path></g><g stroke-linecap="round" transform="translate(752.0000000000002 231) rotate(0 105 52)"><path d="M26 0 M26 0 C63.86 -1.58, 100.87 -0.86, 184 0 M26 0 C84.55 2.15, 140.87 1.41, 184 0 M184 0 C201.59 -0.94, 211.37 9.05, 210 26 M184 0 C199.93 -1.61, 210.43 9.95, 210 26 M210 26 C211.21 42.31, 209.37 54.03, 210 78 M210 26 C210.96 37.62, 209.8 49.43, 210 78 M210 78 C210.55 94.02, 199.91 105.17, 184 104 M210 78 C212.15 94.16, 200.12 104.85, 184 104 M184 104 C145.34 103.76, 108.61 104.93, 26 104 M184 104 C122.74 103.58, 62.24 104.17, 26 104 M26 104 C8.75 104.27, 1.57 93.71, 0 78 M26 104 C6.83 102.92, -0.75 97.22, 0 78 M0 78 C-0.36 68.49, 0.42 57.7, 0 26 M0 78 C-0.01 57.81, 0.55 38.21, 0 26 M0 26 C1.22 10.4, 7.84 0.11, 26 0 M0 26 C1.02 7.49, 9.72 -0.29, 26 0" stroke="#000000" stroke-width="1" fill="none"></path></g><g transform="translate(782.141670227051 258) rotate(0 74.85832977294922 25)"><text x="74.85832977294922" y="0" font-family="Virgil, Segoe UI Emoji" font-size="20px" fill="#e67700" text-anchor="middle" style="white-space: pre;" direction="ltr" dominant-baseline="text-before-edge">Transformation</text><text x="74.85832977294922" y="25" font-family="Virgil, Segoe UI Emoji" font-size="20px" fill="#e67700" text-anchor="middle" style="white-space: pre;" direction="ltr" dominant-baseline="text-before-edge">script</text></g><g stroke-linecap="round"><g transform="translate(573.1954924422874 180.132315341197) rotate(0 14.196782411364097 -1.250618500605924)"><path d="M0.86 0.26 C5.53 -0.05, 24.05 -0.53, 28.55 -0.76 M-0.15 -0.65 C4.35 -0.83, 23.33 -2.88, 27.85 -2.75" stroke="#000000" stroke-width="2" fill="none"></path></g><g transform="translate(573.1954924422874 180.132315341197) rotate(0 14.196782411364097 -1.250618500605924)"><path d="M15.21 3.27 C19.6 0.46, 23.61 -1.21, 27.74 -3.27 M15.35 2.19 C18.6 1.46, 23.06 -0.21, 28.26 -2.99" stroke="#000000" stroke-width="2" fill="none"></path></g><g transform="translate(573.1954924422874 180.132315341197) rotate(0 14.196782411364097 -1.250618500605924)"><path d="M14.72 -6.33 C19.37 -5.84, 23.54 -4.2, 27.74 -3.27 M14.86 -7.41 C18.21 -5.17, 22.81 -3.88, 28.26 -2.99" stroke="#000000" stroke-width="2" fill="none"></path></g></g><mask></mask><g stroke-linecap="round"><g transform="translate(713.9940639451087 267.13950921609626) rotate(0 14.01393217945764 -0.3608559952843393)"><path d="M-1.11 0.81 C3.71 0.41, 24.06 -1.1, 29.14 -1.53 M0.5 0.19 C5.24 -0.13, 23.9 -0.09, 28.69 -0.27" stroke="#000000" stroke-width="2" fill="none"></path></g><g transform="translate(713.9940639451087 267.13950921609626) rotate(0 14.01393217945764 -0.3608559952843393)"><path d="M16.46 5.88 C19 4.67, 22.83 1.95, 28.59 -0.48 M15.68 5.19 C19.62 4.17, 22.82 2.79, 28.7 -0.78" stroke="#000000" stroke-width="2" fill="none"></path></g><g transform="translate(713.9940639451087 267.13950921609626) rotate(0 14.01393217945764 -0.3608559952843393)"><path d="M16.3 -3.77 C18.96 -1.95, 22.84 -1.62, 28.59 -0.48 M15.52 -4.46 C19.45 -2.84, 22.7 -1.58, 28.7 -0.78" stroke="#000000" stroke-width="2" fill="none"></path></g></g><mask></mask><g stroke-linecap="round"><g transform="translate(370 115) rotate(0 -21.150596014661687 -11.35407109801659)"><path d="M-0.49 0.01 C-1.44 -3.35, 0.94 -16.38, -6.27 -19.81 C-13.49 -23.24, -37.79 -20.29, -43.76 -20.59 M1.46 -1.03 C0.47 -4.2, 0.28 -14.56, -6.84 -18.17 C-13.96 -21.79, -35.5 -22.27, -41.26 -22.72" stroke="#000000" stroke-width="2" fill="none"></path></g><g transform="translate(370 115) rotate(0 -21.150596014661687 -11.35407109801659)"><path d="M-24 -26.81 C-28.02 -27.81, -32.01 -24.02, -42.2 -21.5 M-23.7 -28.25 C-27.47 -25.89, -32.62 -25.54, -41.23 -23.11" stroke="#000000" stroke-width="2" fill="none"></path></g><g transform="translate(370 115) rotate(0 -21.150596014661687 -11.35407109801659)"><path d="M-24.7 -14.51 C-28.59 -18.58, -32.4 -17.87, -42.2 -21.5 M-24.41 -15.95 C-28.04 -16.41, -33.02 -18.87, -41.23 -23.11" stroke="#000000" stroke-width="2" fill="none"></path></g></g><mask></mask><g transform="translate(379 70) rotate(0 28.366666793823242 12.5)"><text x="0" y="0" font-family="Virgil, Segoe UI Emoji" font-size="20px" fill="#000000" text-anchor="start" style="white-space: pre;" direction="ltr" dominant-baseline="text-before-edge">watch</text></g><g stroke-linecap="round"><g transform="translate(766.0115436321125 217.49472224358465) rotate(0 -22.599223458571373 -10.99418902113976)"><path d="M0.41 -0.3 C-1.03 -3.56, -0.43 -16.43, -7.98 -19.88 C-15.53 -23.34, -38.85 -20.72, -44.9 -21.03 M-0.83 -1.5 C-2.4 -4.53, -0.93 -15.24, -8.4 -18.28 C-15.86 -21.32, -39.73 -19.28, -45.61 -19.73" stroke="#000000" stroke-width="2" fill="none"></path></g><g transform="translate(766.0115436321125 217.49472224358465) rotate(0 -22.599223458571373 -10.99418902113976)"><path d="M-29.17 -24.47 C-34.58 -23.56, -40.83 -20.41, -46.73 -18.9 M-29.02 -26.86 C-34.58 -24.02, -41.01 -20.96, -44.79 -19.26" stroke="#000000" stroke-width="2" fill="none"></path></g><g transform="translate(766.0115436321125 217.49472224358465) rotate(0 -22.599223458571373 -10.99418902113976)"><path d="M-29.09 -12.16 C-34.5 -15.63, -40.78 -16.87, -46.73 -18.9 M-28.94 -14.54 C-34.45 -16.14, -40.91 -17.52, -44.79 -19.26" stroke="#000000" stroke-width="2" fill="none"></path></g></g><mask></mask><g transform="translate(768.0115436321125 174.4947222435847) rotate(0 28.366666793823242 12.5)"><text x="0" y="0" font-family="Virgil, Segoe UI Emoji" font-size="20px" fill="#000000" text-anchor="start" style="white-space: pre;" direction="ltr" dominant-baseline="text-before-edge">watch</text></g></svg>