<svg version="1.1" xmlns="http://www.w3.org/2000/svg" viewBox="0 0 894.1184831554024 630" width="894.1184831554024" height="630">
  <!-- svg-source:excalidraw -->
  
  <defs>
    <style class="style-fonts">
      @font-face {
        font-family: "Virgil";
        src: url("https://excalidraw.com/Virgil.woff2");
      }
      @font-face {
        font-family: "Cascadia";
        src: url("https://excalidraw.com/Cascadia.woff2");
      }
    </style>
  </defs>
  <rect x="0" y="0" width="894.1184831554024" height="630" fill="#ffffff"></rect><g stroke-linecap="round" transform="translate(10 127) rotate(0 107 176.5)"><path d="M32 0 M32 0 C79.52 0.99, 125.39 1.26, 182 0 M32 0 C86.8 1.69, 143.73 0.88, 182 0 M182 0 C204 1.76, 215.03 10.38, 214 32 M182 0 C202.16 -0.01, 212.32 8.59, 214 32 M214 32 C213.9 117.64, 214.51 204.03, 214 321 M214 32 C215.14 129.63, 215.51 228.19, 214 321 M214 321 C214.57 343.36, 202.47 351.88, 182 353 M214 321 C213.64 340.32, 204.36 352.6, 182 353 M182 353 C135.23 356.41, 92.58 353.12, 32 353 M182 353 C149 354.18, 113.75 354.81, 32 353 M32 353 C9.38 353.86, 0.53 341.89, 0 321 M32 353 C9.91 351.69, -0.06 342.06, 0 321 M0 321 C-1.43 261.99, -0.96 204.63, 0 32 M0 321 C1.55 237.19, 2.35 151.58, 0 32 M0 32 C-1.03 12.08, 11.86 -1.38, 32 0 M0 32 C2.17 11.36, 12.29 -1.87, 32 0" stroke="#000000" stroke-width="1" fill="none"></path></g><g transform="translate(49.916664123535156 291) rotate(0 67.08333587646484 12.5)"><text x="67.08333587646484" y="0" font-family="Virgil, Segoe UI Emoji" font-size="20px" fill="#1864ab" text-anchor="middle" style="white-space: pre;" direction="ltr" dominant-baseline="text-before-edge">Orchestration</text></g><g stroke-linecap="round" transform="translate(300 136.5) rotate(0 141.5 52)"><path d="M26 0 M26 0 C80.59 -1.97, 133.94 -0.99, 257 0 M26 0 C111.61 1.22, 198 1.46, 257 0 M257 0 C275.1 1.96, 283.6 8.62, 283 26 M257 0 C275.01 -1.91, 280.72 6.58, 283 26 M283 26 C284.46 41.2, 280.55 54.55, 283 78 M283 26 C283.37 41.55, 283.19 55.96, 283 78 M283 78 C281.77 96.78, 275.67 102.7, 257 104 M283 78 C283.66 95.61, 275.29 105.11, 257 104 M257 104 C185.21 102.76, 111.48 102.69, 26 104 M257 104 C208.12 104.41, 159.17 104.3, 26 104 M26 104 C10.03 104.24, 0.3 95.78, 0 78 M26 104 C6.78 106.15, 0.65 96.07, 0 78 M0 78 C-1.18 60.68, -2.03 44.82, 0 26 M0 78 C0.7 57.93, 0.96 39.31, 0 26 M0 26 C-0.32 6.92, 6.69 -0.62, 26 0 M0 26 C-1.05 8.06, 8.8 1.56, 26 0" stroke="#000000" stroke-width="1" fill="none"></path></g><g transform="translate(366.6416702270508 163.5) rotate(0 74.85832977294922 25)"><text x="74.85832977294922" y="0" font-family="Virgil, Segoe UI Emoji" font-size="20px" fill="#e67700" text-anchor="middle" style="white-space: pre;" direction="ltr" dominant-baseline="text-before-edge">Transformation</text><text x="74.85832977294922" y="25" font-family="Virgil, Segoe UI Emoji" font-size="20px" fill="#e67700" text-anchor="middle" style="white-space: pre;" direction="ltr" dominant-baseline="text-before-edge">script</text></g><g stroke-linecap="round" transform="translate(702 181) rotate(0 91 35)"><path d="M61.54 2.69 C72.88 0.96, 89.35 0.55, 102.49 1.13 C115.63 1.7, 129.18 3.67, 140.37 6.14 C151.55 8.61, 162.63 11.82, 169.61 15.94 C176.59 20.05, 181.01 25.8, 182.23 30.83 C183.46 35.86, 181.54 41.23, 176.96 46.11 C172.38 50.99, 164.48 56.58, 154.76 60.1 C145.04 63.63, 131.13 65.6, 118.66 67.28 C106.19 68.96, 92.91 70.68, 79.92 70.18 C66.93 69.67, 51.78 67.04, 40.72 64.23 C29.66 61.41, 20.37 57.68, 13.57 53.28 C6.76 48.88, 1.17 43.03, -0.11 37.83 C-1.38 32.63, 1.2 26.75, 5.92 22.09 C10.65 17.43, 17.48 13.44, 28.26 9.85 C39.03 6.26, 62.25 1.83, 70.56 0.53 C78.87 -0.78, 77.72 1.38, 78.12 2.02 M95.06 -0.6 C107.69 -1.09, 124.14 0.96, 135.85 3.51 C147.56 6.05, 158.07 10.32, 165.33 14.66 C172.58 19.01, 177.3 24.35, 179.39 29.56 C181.48 34.77, 181.12 41.08, 177.86 45.93 C174.6 50.78, 168.51 55.23, 159.8 58.64 C151.1 62.05, 137.92 64.37, 125.62 66.39 C113.32 68.4, 98.97 71.04, 85.99 70.73 C73.01 70.42, 59.41 67.22, 47.76 64.52 C36.1 61.82, 23.85 58.57, 16.08 54.55 C8.3 50.53, 3.37 45.4, 1.11 40.41 C-1.15 35.43, -1.15 29.34, 2.5 24.64 C6.16 19.93, 13.89 15.9, 23.04 12.19 C32.19 8.49, 45.38 4.36, 57.4 2.41 C69.41 0.45, 88.75 0.88, 95.15 0.48 C101.54 0.08, 95.49 -0.74, 95.77 0.01" stroke="#000000" stroke-width="1" fill="none"></path></g><g stroke-linecap="round" transform="translate(701 331) rotate(0 91 35)"><path d="M53.46 3.93 C64.38 1.4, 79.72 0.64, 93.03 0.48 C106.35 0.32, 121.48 0.84, 133.34 2.94 C145.21 5.04, 156.32 9.04, 164.22 13.07 C172.13 17.09, 178.2 22.01, 180.77 27.1 C183.34 32.19, 183.15 38.7, 179.64 43.61 C176.12 48.53, 168.12 52.61, 159.68 56.57 C151.23 60.53, 140.89 65.16, 128.96 67.37 C117.02 69.59, 101.24 70.07, 88.06 69.89 C74.87 69.7, 61.53 68.66, 49.83 66.27 C38.14 63.89, 25.86 59.79, 17.9 55.59 C9.95 51.4, 4.53 45.97, 2.11 41.1 C-0.31 36.22, 0.06 31.18, 3.38 26.34 C6.7 21.5, 12.39 15.96, 22.05 12.06 C31.7 8.15, 53.33 4.62, 61.32 2.91 C69.3 1.2, 69.49 1.39, 69.95 1.79 M110.21 -0.18 C122.95 0.37, 136.28 3.77, 146.39 7.06 C156.51 10.35, 165.05 14.82, 170.9 19.55 C176.75 24.29, 180.84 30.45, 181.5 35.5 C182.16 40.55, 180.26 45.6, 174.85 49.85 C169.45 54.1, 159.37 57.66, 149.1 60.98 C138.83 64.3, 125.86 68.57, 113.24 69.77 C100.63 70.98, 86.43 69.48, 73.39 68.21 C60.35 66.94, 45.65 65.12, 35.01 62.15 C24.38 59.19, 15.62 54.93, 9.6 50.42 C3.57 45.9, -0.87 39.98, -1.14 35.07 C-1.41 30.16, 2.15 25.53, 7.99 20.99 C13.83 16.44, 23.93 11.07, 33.92 7.82 C43.9 4.56, 55.36 2.74, 67.89 1.43 C80.43 0.13, 102.06 -0.24, 109.12 0 C116.18 0.24, 110.6 2.01, 110.25 2.89" stroke="#000000" stroke-width="1" fill="none"></path></g><g stroke-linecap="round"><g transform="translate(703 218) rotate(0 0.03640737645326908 78.13801267895852)"><path d="M-1.02 -0.96 C-0.71 24.92, 0.75 129.7, 1.09 155.81 M0.65 1.14 C0.97 27.17, 0.69 131.3, 0.71 157.24" stroke="#000000" stroke-width="1" fill="none"></path></g></g><mask></mask><g stroke-linecap="round"><g transform="translate(882.8812302941087 215.972682370264) rotate(0 0.7191903005701761 77.83126536279917)"><path d="M1.09 -0.19 C1.43 25.91, 1.1 129.46, 1.01 155.65 M0.2 -1.34 C0.56 25.02, 0.61 130.93, 0.59 157.01" stroke="#000000" stroke-width="1" fill="none"></path></g></g><mask></mask><g transform="translate(742 279) rotate(0 49.43333435058594 12.5)"><text x="0" y="0" font-family="Virgil, Segoe UI Emoji" font-size="20px" fill="#000000" text-anchor="start" style="white-space: pre;" direction="ltr" dominant-baseline="text-before-edge">Database</text></g><g stroke-linecap="round" transform="translate(300 263) rotate(0 141.5 52)"><path d="M26 0 M26 0 C88.42 0.93, 152.12 -0.45, 257 0 M26 0 C103.59 0.04, 180.15 1.24, 257 0 M257 0 C272.95 1.77, 283.59 10.02, 283 26 M257 0 C274.07 1.74, 284.51 9.76, 283 26 M283 26 C282.86 36.84, 284.62 45.89, 283 78 M283 26 C282.28 45.62, 283.4 66.48, 283 78 M283 78 C281.55 95.92, 273.12 102.29, 257 104 M283 78 C284.92 97.02, 276.09 103.13, 257 104 M257 104 C203.17 105.92, 145.87 105.07, 26 104 M257 104 C201.67 103.07, 144.81 103.32, 26 104 M26 104 C8.14 105.63, 0.03 94.98, 0 78 M26 104 C7.29 104.49, -1.46 94.25, 0 78 M0 78 C-2.07 58, -1.26 41.59, 0 26 M0 78 C0.55 62.35, -0.01 44.45, 0 26 M0 26 C0.93 6.83, 7.15 0.89, 26 0 M0 26 C-0.25 10.1, 10.75 2.13, 26 0" stroke="#000000" stroke-width="1" fill="none"></path></g><g transform="translate(366.6416702270508 290) rotate(0 74.85832977294922 25)"><text x="74.85832977294922" y="0" font-family="Virgil, Segoe UI Emoji" font-size="20px" fill="#e67700" text-anchor="middle" style="white-space: pre;" direction="ltr" dominant-baseline="text-before-edge">Transformation</text><text x="74.85832977294922" y="25" font-family="Virgil, Segoe UI Emoji" font-size="20px" fill="#e67700" text-anchor="middle" style="white-space: pre;" direction="ltr" dominant-baseline="text-before-edge">script</text></g><g stroke-linecap="round" transform="translate(300 389.5) rotate(0 141.5 52)"><path d="M26 0 M26 0 C113.1 0.71, 201.14 -0.45, 257 0 M26 0 C108.05 -1.37, 191.21 -0.43, 257 0 M257 0 C274.73 -0.16, 284.96 9.69, 283 26 M257 0 C276.59 -0.12, 282.33 9.74, 283 26 M283 26 C282.39 38.06, 284.42 49.49, 283 78 M283 26 C283.47 37.52, 283.53 48.38, 283 78 M283 78 C281.01 96.15, 273.08 102.18, 257 104 M283 78 C283 95.26, 275.66 102.95, 257 104 M257 104 C198.11 102.97, 138.05 104.12, 26 104 M257 104 C193.75 102.62, 131.02 103.48, 26 104 M26 104 C7.13 102.45, -1.8 96.96, 0 78 M26 104 C8.96 103.03, 2.19 95.4, 0 78 M0 78 C1.06 59.26, 0.08 41.61, 0 26 M0 78 C-1.06 64.04, 0.12 49.06, 0 26 M0 26 C1.31 10.31, 9.2 -0.72, 26 0 M0 26 C-1.44 9.03, 7.19 -0.94, 26 0" stroke="#000000" stroke-width="1" fill="none"></path></g><g transform="translate(366.6416702270508 416.5) rotate(0 74.85832977294922 25)"><text x="74.85832977294922" y="0" font-family="Virgil, Segoe UI Emoji" font-size="20px" fill="#e67700" text-anchor="middle" style="white-space: pre;" direction="ltr" dominant-baseline="text-before-edge">Transformation</text><text x="74.85832977294922" y="25" font-family="Virgil, Segoe UI Emoji" font-size="20px" fill="#e67700" text-anchor="middle" style="white-space: pre;" direction="ltr" dominant-baseline="text-before-edge">script</text></g><g stroke-linecap="round"><g transform="translate(230 293) rotate(0 33.900102878827624 -51.45891591198742)"><path d="M0.56 -0.26 C11.76 -17.46, 55.04 -85.8, 66.15 -102.66 M-0.61 -1.44 C11.06 -18.54, 57.22 -84.47, 68.41 -101.47" stroke="#e67700" stroke-width="1" fill="none"></path></g><g transform="translate(230 293) rotate(0 33.900102878827624 -51.45891591198742)"><path d="M60.58 -73.82 C61.35 -78.28, 65.02 -84.17, 69.81 -100.25 M61.99 -72.31 C63.86 -80.19, 65.92 -89.12, 68.82 -100.52" stroke="#e67700" stroke-width="1" fill="none"></path></g><g transform="translate(230 293) rotate(0 33.900102878827624 -51.45891591198742)"><path d="M43.62 -85.38 C48.04 -87.46, 55.32 -90.9, 69.81 -100.25 M45.04 -83.87 C51.89 -88.47, 58.98 -93.98, 68.82 -100.52" stroke="#e67700" stroke-width="1" fill="none"></path></g></g><mask></mask><g stroke-linecap="round"><g transform="translate(225 311) rotate(0 39.1893231381942 -0.7027962297666761)"><path d="M-0.22 -0.56 C13.28 -0.96, 67.06 -2.94, 80.17 -3.17 M-1.8 1.77 C11.73 1.62, 66.63 -0.81, 79.84 -1.72" stroke="#e67700" stroke-width="1" fill="none"></path></g><g transform="translate(225 311) rotate(0 39.1893231381942 -0.7027962297666761)"><path d="M51.32 12 C58.35 6.55, 66.71 3.81, 78.58 -3.63 M51.54 10.32 C60.39 7.43, 66.87 3.51, 79.12 -1.56" stroke="#e67700" stroke-width="1" fill="none"></path></g><g transform="translate(225 311) rotate(0 39.1893231381942 -0.7027962297666761)"><path d="M50.21 -8.49 C57.36 -9.26, 65.97 -7.31, 78.58 -3.63 M50.43 -10.17 C59.68 -7.38, 66.46 -5.61, 79.12 -1.56" stroke="#e67700" stroke-width="1" fill="none"></path></g></g><mask></mask><g stroke-linecap="round"><g transform="translate(226 338) rotate(0 38.69811425950377 49.06687382970006)"><path d="M-0.09 -0.63 C13.01 15.48, 65.75 81.09, 79 97.49 M-1.6 1.65 C11.31 17.86, 64.64 82.55, 78.05 98.76" stroke="#e67700" stroke-width="1" fill="none"></path></g><g transform="translate(226 338) rotate(0 38.69811425950377 49.06687382970006)"><path d="M51.15 83.54 C60.04 89.28, 69.07 93.66, 77.16 98.44 M52.3 83.19 C58.89 88.63, 67.1 92.48, 78.17 98.45" stroke="#e67700" stroke-width="1" fill="none"></path></g><g transform="translate(226 338) rotate(0 38.69811425950377 49.06687382970006)"><path d="M66.98 70.48 C70.7 80.54, 74.48 89.26, 77.16 98.44 M68.13 70.13 C70.16 79.24, 73.81 86.85, 78.17 98.45" stroke="#e67700" stroke-width="1" fill="none"></path></g></g><mask></mask><g stroke-opacity="0.5" fill-opacity="0.5" stroke-linecap="round" transform="translate(300 10) rotate(0 141.5 52)"><path d="M26 0 M26 0 C109.07 -2.45, 195.58 0.3, 257 0 M26 0 C97.65 -0.52, 170.5 -0.55, 257 0 M257 0 C273.56 1.3, 284 8.25, 283 26 M257 0 C273.08 -1.35, 283.9 7.75, 283 26 M283 26 C284.39 44.44, 283.65 58.71, 283 78 M283 26 C282.75 36.76, 283.06 48.52, 283 78 M283 78 C284.99 93.86, 272.92 102.36, 257 104 M283 78 C283.63 94.14, 273.14 106.14, 257 104 M257 104 C196.49 105.04, 138.56 102.2, 26 104 M257 104 C190.95 102.57, 123.54 102.35, 26 104 M26 104 C10.34 104.34, 0.49 94.8, 0 78 M26 104 C9.53 106.15, -2.07 95.33, 0 78 M0 78 C-1.21 59.08, -1.1 42.1, 0 26 M0 78 C-0.63 64.51, -1.14 50.55, 0 26 M0 26 C0.52 8.93, 9.82 -1.93, 26 0 M0 26 C-0.07 8.15, 9.52 -0.42, 26 0" stroke="#495057" stroke-width="1" fill="none"></path></g><g stroke-opacity="0.5" fill-opacity="0.5" transform="translate(409.82500076293945 49.5) rotate(0 31.674999237060547 12.5)"><text x="31.674999237060547" y="0" font-family="Virgil, Segoe UI Emoji" font-size="20px" fill="#495057" text-anchor="middle" style="white-space: pre;" direction="ltr" dominant-baseline="text-before-edge">Ingest</text></g><g stroke-opacity="0.5" fill-opacity="0.5" stroke-linecap="round" transform="translate(300 516) rotate(0 141.5 52)"><path d="M26 0 M26 0 C94.88 -2.14, 164.25 -2.04, 257 0 M26 0 C112.51 -1.15, 199.05 -1.58, 257 0 M257 0 C275.35 0.52, 283.26 9.82, 283 26 M257 0 C272.12 -0.07, 282.49 9.52, 283 26 M283 26 C282.43 39.33, 282.26 56.4, 283 78 M283 26 C282.7 44.53, 281.84 61.36, 283 78 M283 78 C282.36 95.92, 273.61 104.76, 257 104 M283 78 C285.15 95.62, 273.89 104.55, 257 104 M257 104 C195.54 103.12, 130.68 101.31, 26 104 M257 104 C193.19 104.58, 128.42 103.64, 26 104 M26 104 C8.41 103.06, -0.49 93.9, 0 78 M26 104 C7.25 104.94, -1.25 95.61, 0 78 M0 78 C1.12 64.88, -1.51 53.31, 0 26 M0 78 C0.5 59.34, 0.71 41.97, 0 26 M0 26 C1.51 10.22, 8.61 0.19, 26 0 M0 26 C-1.62 7.62, 7.86 -1.05, 26 0" stroke="#495057" stroke-width="1" fill="none"></path></g><g stroke-opacity="0.5" fill-opacity="0.5" transform="translate(408.71666717529297 555.5) rotate(0 32.78333282470703 12.5)"><text x="32.78333282470703" y="0" font-family="Virgil, Segoe UI Emoji" font-size="20px" fill="#495057" text-anchor="middle" style="white-space: pre;" direction="ltr" dominant-baseline="text-before-edge">Export</text></g><g stroke-linecap="round"><g transform="translate(701.6595198192715 203.64807137242826) rotate(0 -57.3687658079474 -4.217459163145264)"><path d="M0.91 -0.18 C-18.36 -1.52, -96.22 -6.93, -115.65 -8.26 M-0.07 -1.32 C-18.97 -2.43, -94.59 -5.78, -113.45 -6.68" stroke="#000000" stroke-width="1" fill="none"></path></g><g transform="translate(701.6595198192715 203.64807137242826) rotate(0 -57.3687658079474 -4.217459163145264)"><path d="M-85.12 -17.28 C-93.23 -14.42, -101.54 -8.4, -114.27 -4.73 M-84.21 -14.98 C-95.86 -13.25, -105.29 -10.15, -112.72 -5.83" stroke="#000000" stroke-width="1" fill="none"></path></g><g transform="translate(701.6595198192715 203.64807137242826) rotate(0 -57.3687658079474 -4.217459163145264)"><path d="M-86.06 3.22 C-93.86 -0.02, -101.89 -0.09, -114.27 -4.73 M-85.15 5.52 C-96.56 -0.01, -105.65 -4.17, -112.72 -5.83" stroke="#000000" stroke-width="1" fill="none"></path></g></g><mask></mask><g stroke-linecap="round"><g transform="translate(590.0000000000002 216.3528940555218) rotate(0 51.24223478410454 1.4484903508524383)"><path d="M-0.69 0.36 C16.45 1, 86.1 3.18, 103.17 3.4 M1.15 -0.5 C18.19 -0.16, 86.14 1.13, 102.74 1.6" stroke="#000000" stroke-width="1" fill="none"></path></g><g transform="translate(590.0000000000002 216.3528940555218) rotate(0 51.24223478410454 1.4484903508524383)"><path d="M74.91 12.84 C84.76 7.44, 91.17 5.56, 103.29 2.46 M74.09 12.08 C83.68 7.94, 94.04 4, 102.11 2.04" stroke="#000000" stroke-width="1" fill="none"></path></g><g transform="translate(590.0000000000002 216.3528940555218) rotate(0 51.24223478410454 1.4484903508524383)"><path d="M75.39 -7.68 C84.99 -6.33, 91.25 -1.46, 103.29 2.46 M74.56 -8.43 C84.01 -5.1, 94.2 -1.57, 102.11 2.04" stroke="#000000" stroke-width="1" fill="none"></path></g></g><mask></mask><g stroke-linecap="round"><g transform="translate(675 268) rotate(0 -42.64582714173946 11.490728475451476)"><path d="M-0.03 -0.47 C-14.03 3.58, -70.29 19.4, -84.2 23.48 M-1.51 -1.77 C-15.67 2.52, -71.5 20.22, -85.26 24.75" stroke="#000000" stroke-width="1" fill="none"></path></g><g transform="translate(675 268) rotate(0 -42.64582714173946 11.490728475451476)"><path d="M-62.36 6.01 C-69.27 12.33, -75.02 15.63, -83.27 24.77 M-61.46 5.58 C-69.56 13.49, -78.87 18.94, -84.9 24.28" stroke="#000000" stroke-width="1" fill="none"></path></g><g transform="translate(675 268) rotate(0 -42.64582714173946 11.490728475451476)"><path d="M-56.07 25.54 C-64.62 26.33, -72.16 24.1, -83.27 24.77 M-55.17 25.11 C-65.44 26.26, -76.95 24.91, -84.9 24.28" stroke="#000000" stroke-width="1" fill="none"></path></g></g><mask></mask><g stroke-linecap="round"><g transform="translate(592 326.8636630240759) rotate(0 47.94080961205441 -16.672283572018785)"><path d="M-1.06 -10.11 C3.76 -10.97, 11.58 -12.1, 27.91 -14.29 C44.24 -16.48, 85.21 -21.58, 96.94 -23.24 M0.59 -7.99 C5.4 -9.17, 11.45 -12.93, 27.34 -15.83 C43.23 -18.72, 84 -24.08, 95.94 -25.35" stroke="#000000" stroke-width="1" fill="none"></path></g><g transform="translate(592 326.8636630240759) rotate(0 47.94080961205441 -16.672283572018785)"><path d="M67.61 -10.57 C76.87 -15.25, 81.56 -16, 94.95 -25.33 M69.68 -12.24 C80.08 -16.46, 88.18 -21.87, 95.65 -26.29" stroke="#000000" stroke-width="1" fill="none"></path></g><g transform="translate(592 326.8636630240759) rotate(0 47.94080961205441 -16.672283572018785)"><path d="M65.14 -30.94 C74.94 -31.16, 80.18 -27.46, 94.95 -25.33 M67.21 -32.61 C78.35 -29.38, 87.35 -27.32, 95.65 -26.29" stroke="#000000" stroke-width="1" fill="none"></path></g></g><mask></mask><g stroke-linecap="round"><g transform="translate(704.8405442134118 382.2983974937622) rotate(0 -57.74090558455396 26.609182406247555)"><path d="M-0.73 0.7 C-20.02 9.73, -96.63 44.61, -115.87 53.19 M1.09 0.02 C-18.31 8.79, -96.92 42.49, -116.57 51.36" stroke="#000000" stroke-width="1" fill="none"></path></g><g transform="translate(704.8405442134118 382.2983974937622) rotate(0 -57.74090558455396 26.609182406247555)"><path d="M-93.71 31.42 C-100.43 36.81, -108.42 44.31, -115.1 51.15 M-94.78 30.15 C-103.83 38.73, -111.71 45.86, -117.26 51.1" stroke="#000000" stroke-width="1" fill="none"></path></g><g transform="translate(704.8405442134118 382.2983974937622) rotate(0 -57.74090558455396 26.609182406247555)"><path d="M-85.46 50.22 C-94.42 50.1, -104.8 52.15, -115.1 51.15 M-86.53 48.94 C-98.84 50.37, -109.88 50.29, -117.26 51.1" stroke="#000000" stroke-width="1" fill="none"></path></g></g><mask></mask><g stroke-linecap="round"><g transform="translate(585.5 463.9774996886937) rotate(0 70.21464912100743 -34.797222488378054)"><path d="M1 -0.99 C24.41 -12.67, 117.29 -59.15, 140.36 -70.7 M0.07 1.11 C23.36 -10.37, 116.52 -57.73, 139.58 -69.42" stroke="#000000" stroke-width="1" fill="none"></path></g><g transform="translate(585.5 463.9774996886937) rotate(0 70.21464912100743 -34.797222488378054)"><path d="M117.44 -47 C124.33 -55.03, 130.95 -61.05, 141.48 -71.2 M118.13 -47.46 C123.06 -51.78, 127.27 -57.14, 139.79 -69.37" stroke="#000000" stroke-width="1" fill="none"></path></g><g transform="translate(585.5 463.9774996886937) rotate(0 70.21464912100743 -34.797222488378054)"><path d="M108.15 -65.3 C117.66 -68.09, 126.97 -68.79, 141.48 -71.2 M108.84 -65.76 C115.71 -66.18, 121.87 -67.67, 139.79 -69.37" stroke="#000000" stroke-width="1" fill="none"></path></g></g><mask></mask><g stroke-linecap="round"><g transform="translate(227.0000000000001 227) rotate(0 32.3822911549359 -75.71590604247206)"><path d="M-0.64 0.92 C10.18 -24.12, 54.51 -125.06, 65.4 -150.51 M1.23 0.36 C11.83 -25.02, 53.41 -127.15, 64.4 -152.35" stroke="#e67700" stroke-width="1" fill="none"></path></g><g transform="translate(227.0000000000001 227) rotate(0 32.3822911549359 -75.71590604247206)"><path d="M64.49 -122.55 C64.4 -133.97, 62.79 -143.67, 63.87 -154.34 M63.81 -121.79 C63.39 -130.03, 63.75 -137.57, 64.61 -152.39" stroke="#e67700" stroke-width="1" fill="none"></path></g><g transform="translate(227.0000000000001 227) rotate(0 32.3822911549359 -75.71590604247206)"><path d="M45.57 -130.49 C51.95 -139.09, 56.82 -146.07, 63.87 -154.34 M44.89 -129.73 C49.38 -136.01, 54.73 -141.46, 64.61 -152.39" stroke="#e67700" stroke-width="1" fill="none"></path></g></g><mask></mask><g stroke-linecap="round"><g transform="translate(226 459.0000000000001) rotate(0 31.588216857984662 54.801133060091786)"><path d="M-1.04 0.42 C9.59 18.38, 53.36 90.49, 64.21 108.52 M0.62 -0.41 C11.11 17.68, 53.14 91.62, 63.64 110.01" stroke="#e67700" stroke-width="1" fill="none"></path></g><g transform="translate(226 459.0000000000001) rotate(0 31.588216857984662 54.801133060091786)"><path d="M41.47 91.79 C48.48 98.35, 56.33 102.97, 63.78 108.67 M40.62 90.94 C46.42 94.06, 50.96 98.27, 62.83 110.8" stroke="#e67700" stroke-width="1" fill="none"></path></g><g transform="translate(226 459.0000000000001) rotate(0 31.588216857984662 54.801133060091786)"><path d="M59.3 81.63 C60.35 91.47, 62.18 99.51, 63.78 108.67 M58.45 80.78 C60.5 86.15, 61.34 92.47, 62.83 110.8" stroke="#e67700" stroke-width="1" fill="none"></path></g></g><mask></mask><g stroke-opacity="0.1" fill-opacity="0.1" transform="translate(742 305) rotate(0 42.5 -1.5)" stroke="none"><path fill="#495057" d="M 0,-5.34 Q 0,-5.34 2.3,-5.38 4.6,-5.41 7.79,-5.54 10.99,-5.67 13.27,-6.02 15.56,-6.37 18.93,-6.67 22.31,-6.98 25.09,-7.09 27.87,-7.20 31.53,-7.23 35.19,-7.25 38.31,-7.29 41.43,-7.34 44.58,-7.80 47.74,-8.27 50.89,-8.40 54.04,-8.53 56.35,-8.59 58.67,-8.64 60.95,-8.73 63.24,-8.82 66.31,-8.86 69.39,-8.90 71.99,-8.94 74.58,-8.99 76.91,-9.04 79.23,-9.10 81.79,-9.63 84.34,-10.15 85.50,-10.07 86.66,-9.99 87.74,-9.54 88.81,-9.09 89.68,-8.32 90.55,-7.55 91.14,-6.54 91.72,-5.54 91.95,-4.40 92.18,-3.26 92.03,-2.10 91.89,-0.95 91.38,0.09 90.87,1.13 90.06,1.96 89.24,2.79 88.21,3.32 87.17,3.85 86.02,4.01 84.87,4.18 83.72,3.97 82.58,3.76 81.56,3.20 80.54,2.64 79.76,1.78 78.98,0.92 78.51,-0.13 78.04,-1.20 77.93,-2.35 77.83,-3.51 78.10,-4.64 78.37,-5.77 78.98,-6.76 79.60,-7.74 80.50,-8.48 81.40,-9.22 82.49,-9.63 83.57,-10.04 84.74,-10.08 85.90,-10.13 87.01,-9.79 88.13,-9.46 89.08,-8.79 90.03,-8.12 90.72,-7.19 91.40,-6.25 91.76,-5.14 92.11,-4.03 92.09,-2.87 92.07,-1.71 91.67,-0.61 91.28,0.47 90.56,1.39 89.84,2.30 88.87,2.94 87.90,3.57 86.77,3.86 85.64,4.15 85.65,4.15 85.65,4.15 84.61,4.07 83.57,3.98 81.40,4.54 79.23,5.10 76.91,5.04 74.58,4.99 71.99,4.94 69.39,4.90 66.32,4.86 63.24,4.82 60.98,4.74 58.73,4.66 56.50,4.63 54.28,4.60 51.33,4.60 48.39,4.60 44.91,4.97 41.43,5.34 38.32,5.30 35.20,5.26 31.57,5.24 27.95,5.23 25.32,5.18 22.68,5.13 20.13,5.18 17.59,5.22 14.29,5.45 10.99,5.67 7.79,5.54 4.6,5.41 2.3,5.38 0,5.34 -0.64,5.27 -1.28,5.19 -1.88,4.96 -2.48,4.73 -3.01,4.37 -3.54,4.00 -3.97,3.52 -4.40,3.03 -4.70,2.46 -5.00,1.89 -5.15,1.27 -5.31,0.64 -5.31,-0.00 -5.31,-0.64 -5.15,-1.27 -5.00,-1.89 -4.70,-2.46 -4.40,-3.03 -3.97,-3.52 -3.54,-4.00 -3.01,-4.37 -2.48,-4.73 -1.88,-4.96 -1.27,-5.19 -0.63,-5.27 0.00,-5.34 0.00,-5.34 L 0,-5.34 Z"></path></g><g stroke-opacity="0.1" fill-opacity="0.1" transform="translate(53 317) rotate(0 58.5 2)" stroke="none"><path fill="#1864ab" d="M 0,-5.33 Q 0,-5.33 2.30,-5.37 4.61,-5.40 6.87,-5.14 9.13,-4.88 11.60,-4.87 14.08,-4.86 16.39,-4.93 18.71,-5.01 20.91,-5.09 23.12,-5.18 25.28,-5.25 27.45,-5.33 29.64,-5.39 31.83,-5.44 34.11,-5.07 36.38,-4.70 38.98,-4.67 41.58,-4.64 45.07,-4.61 48.56,-4.58 50.95,-4.62 53.35,-4.66 55.98,-4.73 58.62,-4.79 61.19,-4.37 63.77,-3.96 66.37,-3.95 68.97,-3.94 71.59,-3.97 74.20,-4.00 76.65,-4.03 79.10,-4.07 82.57,-3.70 86.04,-3.33 88.62,-3.20 91.20,-3.08 93.94,-3.08 96.68,-3.07 98.90,-3.08 101.12,-3.08 104.80,-3.01 108.48,-2.93 110.62,-2.95 112.75,-2.97 114.87,-2.98 117.00,-2.99 118.11,-2.81 119.23,-2.63 120.23,-2.10 121.23,-1.57 122.01,-0.74 122.79,0.07 123.26,1.10 123.74,2.12 123.86,3.25 123.98,4.37 123.74,5.48 123.50,6.59 122.91,7.56 122.33,8.53 121.47,9.26 120.60,9.99 119.55,10.41 118.50,10.83 117.37,10.89 116.24,10.95 115.15,10.65 114.06,10.35 113.12,9.71 112.18,9.08 111.50,8.17 110.81,7.27 110.45,6.20 110.09,5.13 110.09,3.99 110.09,2.86 110.45,1.79 110.81,0.72 111.50,-0.18 112.18,-1.08 113.12,-1.71 114.06,-2.35 115.15,-2.65 116.24,-2.95 117.37,-2.89 118.50,-2.83 119.55,-2.41 120.60,-1.99 121.47,-1.26 122.33,-0.52 122.91,0.44 123.50,1.41 123.74,2.51 123.98,3.62 123.86,4.74 123.74,5.87 123.26,6.90 122.79,7.92 122.01,8.75 121.23,9.57 120.23,10.10 119.23,10.63 118.11,10.81 116.99,10.99 116.99,10.99 116.99,10.99 114.03,10.97 111.07,10.94 108.07,10.96 105.07,10.98 101.82,11.03 98.56,11.08 95.85,11.03 93.14,10.99 90.42,10.91 87.71,10.83 84.24,10.46 80.76,10.09 78.57,10.05 76.38,10.01 74.06,10.00 71.75,9.99 69.50,9.92 67.24,9.86 64.51,9.73 61.77,9.60 59.22,9.17 56.66,8.75 53.88,8.68 51.10,8.61 48.15,8.59 45.20,8.56 41.52,8.55 37.84,8.53 34.78,8.17 31.71,7.81 29.58,7.57 27.44,7.33 25.27,7.25 23.11,7.17 19.92,7.01 16.73,6.86 13.60,6.66 10.48,6.46 7.53,5.93 4.58,5.40 2.29,5.37 0,5.33 -0.63,5.26 -1.27,5.18 -1.87,4.95 -2.48,4.72 -3.01,4.36 -3.54,3.99 -3.96,3.51 -4.39,3.03 -4.69,2.46 -4.99,1.89 -5.14,1.26 -5.30,0.64 -5.30,-0.00 -5.30,-0.64 -5.14,-1.26 -4.99,-1.89 -4.69,-2.46 -4.39,-3.03 -3.96,-3.51 -3.54,-3.99 -3.01,-4.36 -2.48,-4.72 -1.87,-4.95 -1.27,-5.18 -0.63,-5.26 0.00,-5.33 0.00,-5.33 L 0,-5.33 Z"></path></g><g stroke-linecap="round"><g transform="translate(601.3687658079475 65.21745916314524) rotate(0 56.37922056833821 54.61558625105663)"><path d="M-1.03 0.4 C18.1 18.82, 94.7 91.59, 113.79 109.66 M0.63 -0.43 C19.63 17.75, 93.33 89.62, 112.55 108.06" stroke="#000000" stroke-width="1" fill="none"></path></g><g transform="translate(601.3687658079475 65.21745916314524) rotate(0 56.37922056833821 54.61558625105663)"><path d="M85.83 94.9 C92.76 97.36, 97.42 102.42, 112.34 107.55 M85.2 95.51 C94.25 100.32, 102.42 103.55, 112.89 107.06" stroke="#000000" stroke-width="1" fill="none"></path></g><g transform="translate(601.3687658079475 65.21745916314524) rotate(0 56.37922056833821 54.61558625105663)"><path d="M100.1 80.16 C103.78 85.74, 105.29 94.06, 112.34 107.55 M99.48 80.77 C104.32 90.02, 108.15 97.72, 112.89 107.06" stroke="#000000" stroke-width="1" fill="none"></path></g></g><mask></mask><g stroke-linecap="round"><g transform="translate(762.7409055845537 405.39081759375233) rotate(0 -87.04843876711158 75.98847117375857)"><path d="M0.99 -0.64 C-27.92 24.53, -144.99 125.91, -174.21 151.62 M0.05 1.63 C-28.94 26.87, -145.9 127.6, -175.08 152.62" stroke="#000000" stroke-width="1" fill="none"></path></g><g transform="translate(762.7409055845537 405.39081759375233) rotate(0 -87.04843876711158 75.98847117375857)"><path d="M-161.47 126.68 C-165.46 132.83, -165.66 140.5, -174.82 153.38 M-160.37 125.67 C-165.37 136.35, -169.9 143.42, -174.15 151.66" stroke="#000000" stroke-width="1" fill="none"></path></g><g transform="translate(762.7409055845537 405.39081759375233) rotate(0 -87.04843876711158 75.98847117375857)"><path d="M-148.09 142.25 C-155.34 144.81, -158.71 148.78, -174.82 153.38 M-146.99 141.23 C-156.58 146.69, -165.63 148.49, -174.15 151.66" stroke="#000000" stroke-width="1" fill="none"></path></g></g><mask></mask></svg>